<svg width="70" height="70" viewBox="0 0 70 70" fill="none" xmlns="http://www.w3.org/2000/svg">
<mask id="mask0_61_314" style="mask-type:alpha" maskUnits="userSpaceOnUse" x="0" y="0" width="70" height="70">
<rect width="70" height="70" fill="#D9D9D9"/>
</mask>
<g mask="url(#mask0_61_314)">
<path d="M53.9583 29.1667H64.1667V35.0001H58.3333V51.0417C58.3333 53.0834 57.6285 54.8091 56.2188 56.2188C54.809 57.6286 53.0833 58.3334 51.0417 58.3334C49 58.3334 47.2743 57.6286 45.8646 56.2188C44.4549 54.8091 43.75 53.0834 43.75 51.0417C43.75 49.0001 44.4549 47.2744 45.8646 45.8647C47.2743 44.4549 49 43.7501 51.0417 43.7501C51.4306 43.7501 51.8681 43.7865 52.3542 43.8595C52.8403 43.9324 53.375 44.0904 53.9583 44.3334V29.1667ZM8.75 58.3334V50.1667C8.75 48.4654 9.17535 46.9341 10.026 45.573C10.8767 44.2119 12.0069 43.1667 13.4167 42.4376C16.4306 40.9306 19.4931 39.8004 22.6042 39.047C25.7153 38.2935 28.875 37.9167 32.0833 37.9167C34.125 37.9167 36.1545 38.0747 38.1719 38.3907C40.1892 38.7067 42.2188 39.1806 44.2604 39.8126C43.2882 40.3959 42.4132 41.1008 41.6354 41.9272C40.8576 42.7536 40.1771 43.6529 39.5938 44.6251C38.3299 44.3334 37.0781 44.1147 35.8385 43.9688C34.599 43.823 33.3472 43.7501 32.0833 43.7501C29.3125 43.7501 26.5903 44.0904 23.9167 44.7709C21.2431 45.4515 18.6181 46.4237 16.0417 47.6876C15.6042 47.9306 15.2517 48.2709 14.9844 48.7084C14.717 49.1459 14.5833 49.632 14.5833 50.1667V52.5001H37.9896C38.0868 53.4723 38.3177 54.4445 38.6823 55.4167C39.0469 56.389 39.5451 57.3612 40.1771 58.3334H8.75ZM32.0833 35.0001C28.875 35.0001 26.1285 33.8577 23.8438 31.573C21.559 29.2883 20.4167 26.5417 20.4167 23.3334C20.4167 20.1251 21.559 17.3786 23.8438 15.0938C26.1285 12.8091 28.875 11.6667 32.0833 11.6667C35.2917 11.6667 38.0382 12.8091 40.3229 15.0938C42.6076 17.3786 43.75 20.1251 43.75 23.3334C43.75 26.5417 42.6076 29.2883 40.3229 31.573C38.0382 33.8577 35.2917 35.0001 32.0833 35.0001ZM32.0833 29.1667C33.6875 29.1667 35.0608 28.5956 36.2031 27.4532C37.3455 26.3108 37.9167 24.9376 37.9167 23.3334C37.9167 21.7292 37.3455 20.356 36.2031 19.2136C35.0608 18.0713 33.6875 17.5001 32.0833 17.5001C30.4792 17.5001 29.1059 18.0713 27.9635 19.2136C26.8212 20.356 26.25 21.7292 26.25 23.3334C26.25 24.9376 26.8212 26.3108 27.9635 27.4532C29.1059 28.5956 30.4792 29.1667 32.0833 29.1667Z" fill="#F04299"/>
</g>
</svg>
