<svg width="80" height="80" viewBox="0 0 80 80" fill="none" xmlns="http://www.w3.org/2000/svg">
<rect x="0.5" y="0.5" width="79" height="79" rx="39.5" fill="#F04299"/>
<rect x="0.5" y="0.5" width="79" height="79" rx="39.5" stroke="#F04299"/>
<mask id="mask0_335_258" style="mask-type:alpha" maskUnits="userSpaceOnUse" x="15" y="15" width="50" height="50">
<rect x="15" y="15" width="50" height="50" fill="#D9D9D9"/>
</mask>
<g mask="url(#mask0_335_258)">
<path d="M39.9998 44.1666C38.2637 44.1666 36.788 43.559 35.5728 42.3437C34.3575 41.1284 33.7498 39.6527 33.7498 37.9166V25.4166C33.7498 23.6805 34.3575 22.2048 35.5728 20.9895C36.788 19.7743 38.2637 19.1666 39.9998 19.1666C41.7359 19.1666 43.2116 19.7743 44.4269 20.9895C45.6422 22.2048 46.2498 23.6805 46.2498 25.4166V37.9166C46.2498 39.6527 45.6422 41.1284 44.4269 42.3437C43.2116 43.559 41.7359 44.1666 39.9998 44.1666ZM37.9165 58.75V52.3437C34.3054 51.8576 31.3193 50.243 28.9582 47.5C26.5971 44.7569 25.4165 41.5625 25.4165 37.9166H29.5832C29.5832 40.7986 30.5988 43.2552 32.63 45.2864C34.6613 47.3177 37.1179 48.3333 39.9998 48.3333C42.8818 48.3333 45.3384 47.3177 47.3696 45.2864C49.4009 43.2552 50.4165 40.7986 50.4165 37.9166H54.5832C54.5832 41.5625 53.4026 44.7569 51.0415 47.5C48.6804 50.243 45.6943 51.8576 42.0832 52.3437V58.75H37.9165ZM39.9998 40C40.5901 40 41.0849 39.8003 41.4842 39.401C41.8835 39.0017 42.0832 38.5069 42.0832 37.9166V25.4166C42.0832 24.8263 41.8835 24.3316 41.4842 23.9323C41.0849 23.5329 40.5901 23.3333 39.9998 23.3333C39.4096 23.3333 38.9148 23.5329 38.5155 23.9323C38.1162 24.3316 37.9165 24.8263 37.9165 25.4166V37.9166C37.9165 38.5069 38.1162 39.0017 38.5155 39.401C38.9148 39.8003 39.4096 40 39.9998 40Z" fill="#F1F3F8"/>
</g>
</svg>
