<svg width="80" height="80" viewBox="0 0 80 80" fill="none" xmlns="http://www.w3.org/2000/svg">
<rect x="0.5" y="0.5" width="79" height="79" rx="39.5" fill="#F04299"/>
<rect x="0.5" y="0.5" width="79" height="79" rx="39.5" stroke="#F04299"/>
<mask id="mask0_335_261" style="mask-type:alpha" maskUnits="userSpaceOnUse" x="15" y="15" width="50" height="50">
<rect x="15" y="15" width="50" height="50" fill="#D9D9D9"/>
</mask>
<g mask="url(#mask0_335_261)">
<path d="M19.167 60.8333V56.6667C20.7642 56.6667 22.3441 56.5625 23.9066 56.3542C25.4691 56.1458 26.9969 55.7639 28.4899 55.2083C26.8927 54.4097 25.634 53.2552 24.7139 51.7448C23.7937 50.2344 23.3337 48.5937 23.3337 46.8229V42.0833H31.667V35.8333H38.6982L31.8753 22.1875L35.6253 20.3125L42.4482 33.9583C43.1427 35.3472 43.0906 36.7014 42.292 38.0208C41.4934 39.3403 40.3128 40 38.7503 40H35.8337V42.0833C35.8337 43.2292 35.4257 44.2101 34.6097 45.026C33.7937 45.842 32.8128 46.25 31.667 46.25H27.5003V46.8229C27.5003 48.0382 27.8736 49.1059 28.6201 50.026C29.3666 50.9462 30.3128 51.5625 31.4587 51.875L32.0837 52.0312C33.4725 52.3785 34.2538 53.2465 34.4274 54.6354C34.601 56.0243 34.0628 57.066 32.8128 57.7604C30.7295 58.9062 28.5333 59.7049 26.2243 60.1562C23.9153 60.6076 21.5628 60.8333 19.167 60.8333ZM48.9587 54.8958L45.9899 51.9792C46.7191 51.25 47.292 50.408 47.7087 49.4531C48.1253 48.4983 48.3337 47.4653 48.3337 46.3542C48.3337 45.2431 48.1253 44.2101 47.7087 43.2552C47.292 42.3003 46.7191 41.4583 45.9899 40.7292L48.9587 37.7604C50.0698 38.8715 50.9378 40.1649 51.5628 41.6406C52.1878 43.1163 52.5003 44.6875 52.5003 46.3542C52.5003 48.0208 52.1878 49.5833 51.5628 51.0417C50.9378 52.5 50.0698 53.7847 48.9587 54.8958ZM54.8441 60.8333L51.8753 57.8646C53.3684 56.3715 54.5403 54.6441 55.391 52.6823C56.2416 50.7205 56.667 48.6111 56.667 46.3542C56.667 44.0625 56.2416 41.9444 55.391 40C54.5403 38.0556 53.3684 36.3368 51.8753 34.8437L54.8441 31.875C56.7191 33.75 58.1861 35.9201 59.2451 38.3854C60.3042 40.8507 60.8337 43.5069 60.8337 46.3542C60.8337 49.1667 60.3042 51.8142 59.2451 54.2969C58.1861 56.7795 56.7191 58.9583 54.8441 60.8333Z" fill="white"/>
</g>
</svg>
