<svg width="80" height="80" viewBox="0 0 80 80" fill="none" xmlns="http://www.w3.org/2000/svg">
<rect x="0.5" y="0.5" width="79" height="79" rx="39.5" fill="#F04299"/>
<rect x="0.5" y="0.5" width="79" height="79" rx="39.5" stroke="#F04299"/>
<mask id="mask0_337_410" style="mask-type:alpha" maskUnits="userSpaceOnUse" x="15" y="15" width="50" height="50">
<rect x="15" y="15" width="50" height="50" fill="#D9D9D9"/>
</mask>
<g mask="url(#mask0_337_410)">
<path d="M33.9585 48.5417L48.5418 39.1667L33.9585 29.7917V48.5417ZM39.1668 60C36.2849 60 33.5766 59.4532 31.0418 58.3594C28.5071 57.2657 26.3022 55.7813 24.4272 53.9063C22.5522 52.0313 21.0679 49.8264 19.9741 47.2917C18.8804 44.757 18.3335 42.0487 18.3335 39.1667C18.3335 36.2848 18.8804 33.5764 19.9741 31.0417C21.0679 28.507 22.5522 26.3021 24.4272 24.4271C26.3022 22.5521 28.5071 21.0677 31.0418 19.974C33.5766 18.8802 36.2849 18.3334 39.1668 18.3334C42.0488 18.3334 44.7571 18.8802 47.2918 19.974C49.8266 21.0677 52.0314 22.5521 53.9064 24.4271C55.7814 26.3021 57.2658 28.507 58.3595 31.0417C59.4533 33.5764 60.0002 36.2848 60.0002 39.1667C60.0002 42.0487 59.4533 44.757 58.3595 47.2917C57.2658 49.8264 55.7814 52.0313 53.9064 53.9063C52.0314 55.7813 49.8266 57.2657 47.2918 58.3594C44.7571 59.4532 42.0488 60 39.1668 60ZM39.1668 55.8334C43.8196 55.8334 47.7606 54.2188 50.9897 50.9896C54.2189 47.7605 55.8335 43.8195 55.8335 39.1667C55.8335 34.5139 54.2189 30.573 50.9897 27.3438C47.7606 24.1146 43.8196 22.5 39.1668 22.5C34.5141 22.5 30.5731 24.1146 27.3439 27.3438C24.1147 30.573 22.5002 34.5139 22.5002 39.1667C22.5002 43.8195 24.1147 47.7605 27.3439 50.9896C30.5731 54.2188 34.5141 55.8334 39.1668 55.8334Z" fill="#F8F6F7"/>
</g>
</svg>
