<svg width="22" height="22" viewBox="0 0 22 22" fill="none" xmlns="http://www.w3.org/2000/svg">
<path d="M2.75 9.16668V12.8334C2.75 13.3375 3.1625 13.75 3.66667 13.75H6.41667L9.4325 16.7659C10.01 17.3434 11 16.9309 11 16.115V5.87585C11 5.06002 10.01 4.64752 9.4325 5.22502L6.41667 8.25002H3.66667C3.1625 8.25002 2.75 8.66252 2.75 9.16668ZM15.125 11C15.125 9.37752 14.19 7.98418 12.8333 7.30585V14.685C14.19 14.0159 15.125 12.6225 15.125 11ZM12.8333 4.07918V4.26252C12.8333 4.61085 13.0625 4.91335 13.3833 5.04168C15.7483 5.98585 17.4167 8.30502 17.4167 11C17.4167 13.695 15.7483 16.0142 13.3833 16.9584C13.0533 17.0867 12.8333 17.3892 12.8333 17.7375V17.9209C12.8333 18.4984 13.4108 18.9017 13.9425 18.7C17.05 17.5175 19.25 14.52 19.25 11C19.25 7.48002 17.05 4.48252 13.9425 3.30002C13.4108 3.08918 12.8333 3.50168 12.8333 4.07918V4.07918Z" fill="white"/>
</svg>
