<svg width="70" height="70" viewBox="0 0 70 70" fill="none" xmlns="http://www.w3.org/2000/svg">
<mask id="mask0_61_289" style="mask-type:alpha" maskUnits="userSpaceOnUse" x="0" y="0" width="70" height="70">
<rect width="70" height="70" fill="#D9D9D9"/>
</mask>
<g mask="url(#mask0_61_289)">
<path d="M24.6458 52.427C25.4235 52.427 25.9826 52.1718 26.3228 51.6614C26.6631 51.151 26.8819 50.5555 26.9791 49.8749C27.0763 49.3888 27.1614 48.9027 27.2343 48.4166C27.3072 47.9305 27.3923 47.3958 27.4895 46.8124C27.5867 46.2777 27.6961 45.6944 27.8176 45.0624C27.9392 44.4305 28.0728 43.7013 28.2187 42.8749C29.3367 42.6319 30.4305 42.4253 31.4999 42.2551C32.5694 42.085 33.6145 41.9513 34.6353 41.8541C35.7534 41.7083 36.8593 41.5989 37.953 41.526C39.0468 41.453 40.1041 41.368 41.1249 41.2708C41.368 42.4374 41.6232 43.4826 41.8905 44.4062C42.1579 45.3298 42.4374 46.2048 42.7291 47.0312C43.118 48.1492 43.5433 49.0728 44.0051 49.802C44.4669 50.5312 45.0381 51.1631 45.7187 51.6978C46.3992 52.2326 47.1405 52.5242 47.9426 52.5728C48.7447 52.6214 49.4374 52.4027 50.0208 51.9166C50.4583 51.5763 50.677 51.0659 50.677 50.3853C50.677 49.7048 50.4826 48.8541 50.0937 47.8333C49.8506 47.2985 49.644 46.7517 49.4739 46.1926C49.3037 45.6336 49.0971 45.0624 48.8541 44.4791C48.611 43.7985 48.3923 43.1787 48.1978 42.6197C48.0034 42.0607 47.8333 41.5138 47.6874 40.9791C48.3194 40.9305 48.8905 40.8211 49.401 40.651C49.9114 40.4808 50.3367 40.2499 50.677 39.9582C51.0173 39.6666 51.2725 39.3142 51.4426 38.901C51.6128 38.4878 51.6978 38.0381 51.6978 37.552C51.6978 37.0173 51.5885 36.5676 51.3697 36.203C51.151 35.8385 50.8228 35.5346 50.3853 35.2916C49.9478 35.0485 49.401 34.8905 48.7447 34.8176C48.0885 34.7447 47.3471 34.7569 46.5207 34.8541C46.4235 33.9791 46.3263 33.1162 46.2291 32.2655C46.1319 31.4148 46.0103 30.552 45.8645 29.677C45.7187 28.8506 45.585 27.9999 45.4635 27.1249C45.3419 26.2499 45.1596 25.3992 44.9166 24.5728C44.6249 23.3089 44.2117 22.2273 43.677 21.328C43.1423 20.4287 42.5346 19.6874 41.8541 19.1041C41.2221 18.5694 40.5294 18.1683 39.776 17.901C39.0225 17.6336 38.1839 17.4999 37.2603 17.4999C36.1909 17.4999 35.1701 17.7187 34.1978 18.1562C33.2256 18.5937 32.2534 19.2499 31.2812 20.1249C30.7464 20.6596 30.2117 21.2308 29.677 21.8385C29.1423 22.4461 28.6319 23.1631 28.1458 23.9895C27.7569 23.6978 27.4044 23.5034 27.0885 23.4062C26.7725 23.3089 26.4201 23.2603 26.0312 23.2603C25.4964 23.2603 25.0468 23.4062 24.6822 23.6978C24.3176 23.9895 24.1353 24.4756 24.1353 25.1562C24.1353 26.0312 24.0867 26.9062 23.9895 27.7812C23.8923 28.6562 23.7464 29.5312 23.552 30.4062C23.3089 31.6701 23.0416 32.9218 22.7499 34.1614C22.4583 35.401 22.1909 36.6527 21.9478 37.9166C21.4131 38.0138 20.9392 38.1475 20.526 38.3176C20.1128 38.4878 19.7603 38.6701 19.4687 38.8645C19.0798 39.1076 18.8003 39.4114 18.6301 39.776C18.46 40.1405 18.3749 40.5173 18.3749 40.9062C18.3749 41.2464 18.4235 41.5624 18.5208 41.8541C18.618 42.1458 18.7881 42.4131 19.0312 42.6562C19.2742 42.8992 19.5659 43.0815 19.9062 43.203C20.2464 43.3246 20.6353 43.4096 21.0728 43.4583C21.0242 44.0416 20.9878 44.5885 20.9635 45.0989C20.9392 45.6093 20.927 46.1076 20.927 46.5937C20.927 47.6145 20.9999 48.4895 21.1458 49.2187C21.2916 49.9478 21.5103 50.5555 21.802 51.0416C22.0937 51.5277 22.4704 51.8801 22.9322 52.0989C23.394 52.3176 23.9652 52.427 24.6458 52.427ZM29.8228 36.1666C30.1145 35.0485 30.4548 33.9669 30.8437 32.9218C31.2326 31.8767 31.6701 30.7951 32.1562 29.677C32.9339 27.8784 33.7603 26.4444 34.6353 25.3749C35.5103 24.3055 36.2881 23.7708 36.9687 23.7708C37.5034 23.7708 37.9652 24.1839 38.3541 25.0103C38.743 25.8367 39.0589 27.0763 39.302 28.7291C39.4478 29.7013 39.5694 30.7464 39.6666 31.8645C39.7638 32.9826 39.861 34.0277 39.9582 34.9999C39.1319 35.0485 38.2812 35.1093 37.4062 35.1822C36.5312 35.2551 35.6805 35.3402 34.8541 35.4374C34.0277 35.5346 33.1892 35.644 32.3385 35.7655C31.4878 35.8871 30.6492 36.0208 29.8228 36.1666ZM11.6666 64.1666C10.0624 64.1666 8.68915 63.5954 7.54679 62.453C6.40443 61.3107 5.83325 59.9374 5.83325 58.3332V11.6666C5.83325 10.0624 6.40443 8.68915 7.54679 7.54679C8.68915 6.40443 10.0624 5.83325 11.6666 5.83325H58.3332C59.9374 5.83325 61.3107 6.40443 62.453 7.54679C63.5954 8.68915 64.1666 10.0624 64.1666 11.6666V58.3332C64.1666 59.9374 63.5954 61.3107 62.453 62.453C61.3107 63.5954 59.9374 64.1666 58.3332 64.1666H11.6666ZM11.6666 58.3332H58.3332V11.6666H11.6666V58.3332Z" fill="#F04299"/>
</g>
</svg>
